<svg width="24" height="22" viewBox="0 0 24 22" fill="none" xmlns="http://www.w3.org/2000/svg">
<path d="M5.9498 21.8499C7.91634 8.45208 18.4604 0.760354 23.8745 0.668471C23.9298 0.667533 23.9721 0.715614 23.9718 0.770842C23.9362 7.17584 20.5774 7.48567 18.8107 7.64863C18.4024 7.68629 18.0792 7.71611 17.9016 7.81147C16.7051 8.093 15.8781 8.90863 15.5262 9.32469C15.3676 9.51225 16.7391 9.73285 19.1457 9.52219C19.2335 9.5145 19.287 9.61667 19.2307 9.68455C17.238 12.0895 15.0191 12.5748 13.6282 12.879C13.1759 12.9779 12.8111 13.0577 12.5702 13.1781C10.9172 14.7974 8.12366 18.5277 6.13345 21.9168C6.07798 22.0113 5.93389 21.9582 5.9498 21.8499Z" fill="white"/>
<path d="M5 1.42399C5.41421 1.42399 5.75 1.75977 5.75 2.17399V5.67399H9.25C9.66421 5.67399 10 6.00977 10 6.42399C10 6.8382 9.66421 7.17399 9.25 7.17399H5.75V10.674C5.75 11.0882 5.41421 11.424 5 11.424C4.58579 11.424 4.25 11.0882 4.25 10.674V7.17399H0.75C0.335786 7.17399 0 6.8382 0 6.42399C0 6.00977 0.335786 5.67399 0.75 5.67399H4.25V2.17399C4.25 1.75977 4.58579 1.42399 5 1.42399Z" fill="white"/>
</svg>
