<svg width="15" height="15" viewBox="0 0 15 15" fill="none" xmlns="http://www.w3.org/2000/svg">
<path d="M5.01971 5.06128C5.01971 5.61353 4.57196 6.06128 4.01971 6.06128C3.46747 6.06128 3.01971 5.61353 3.01971 5.06128C3.01971 4.50903 3.46747 4.06128 4.01971 4.06128C4.57196 4.06128 5.01971 4.50903 5.01971 5.06128Z" fill="#687684"/>
<path d="M4.01971 9.31128C4.57196 9.31128 5.01971 8.86353 5.01971 8.31128C5.01971 7.75903 4.57196 7.31128 4.01971 7.31128C3.46747 7.31128 3.01971 7.75903 3.01971 8.31128C3.01971 8.86353 3.46747 9.31128 4.01971 9.31128Z" fill="#687684"/>
<path d="M5.01971 11.3113C5.01971 11.8635 4.57196 12.3113 4.01971 12.3113C3.46747 12.3113 3.01971 11.8635 3.01971 11.3113C3.01971 10.759 3.46747 10.3113 4.01971 10.3113C4.57196 10.3113 5.01971 10.759 5.01971 11.3113Z" fill="#687684"/>
<path d="M7.51971 6.06128C8.07196 6.06128 8.51971 5.61353 8.51971 5.06128C8.51971 4.50903 8.07196 4.06128 7.51971 4.06128C6.96747 4.06128 6.51971 4.50903 6.51971 5.06128C6.51971 5.61353 6.96747 6.06128 7.51971 6.06128Z" fill="#687684"/>
<path d="M8.51971 8.31128C8.51971 8.86353 8.07196 9.31128 7.51971 9.31128C6.96747 9.31128 6.51971 8.86353 6.51971 8.31128C6.51971 7.75903 6.96747 7.31128 7.51971 7.31128C8.07196 7.31128 8.51971 7.75903 8.51971 8.31128Z" fill="#687684"/>
<path d="M7.51971 12.3113C8.07196 12.3113 8.51971 11.8635 8.51971 11.3113C8.51971 10.759 8.07196 10.3113 7.51971 10.3113C6.96747 10.3113 6.51971 10.759 6.51971 11.3113C6.51971 11.8635 6.96747 12.3113 7.51971 12.3113Z" fill="#687684"/>
<path d="M12.0197 5.06128C12.0197 5.61353 11.572 6.06128 11.0197 6.06128C10.4675 6.06128 10.0197 5.61353 10.0197 5.06128C10.0197 4.50903 10.4675 4.06128 11.0197 4.06128C11.572 4.06128 12.0197 4.50903 12.0197 5.06128Z" fill="#687684"/>
<path d="M11.0197 9.31128C11.572 9.31128 12.0197 8.86353 12.0197 8.31128C12.0197 7.75903 11.572 7.31128 11.0197 7.31128C10.4675 7.31128 10.0197 7.75903 10.0197 8.31128C10.0197 8.86353 10.4675 9.31128 11.0197 9.31128Z" fill="#687684"/>
<path fill-rule="evenodd" clip-rule="evenodd" d="M2.26971 0.311279C1.16522 0.311279 0.269714 1.20667 0.269714 2.31128V12.8113C0.269714 13.9159 1.16522 14.8113 2.26971 14.8113H12.7697C13.8742 14.8113 14.7697 13.9159 14.7697 12.8113V2.31128C14.7697 1.20667 13.8742 0.311279 12.7697 0.311279H2.26971ZM12.7697 2.81128H2.26971C2.06854 2.81128 1.88544 2.89075 1.75067 3.02002C1.60809 3.15649 1.51971 3.34851 1.51971 3.56128V12.8113C1.51971 13.2255 1.85565 13.5613 2.26971 13.5613H12.7697C13.1838 13.5613 13.5197 13.2255 13.5197 12.8113V3.56128C13.5197 3.14709 13.1838 2.81128 12.7697 2.81128Z" fill="#687684"/>
</svg>
