<svg width="15" height="15" viewBox="0 0 15 15" fill="none" xmlns="http://www.w3.org/2000/svg">
<path d="M12.0375 7.97276C11.7614 8.19723 11.3557 8.15593 11.1304 7.88043C10.8997 7.59817 10.9482 7.18094 11.2377 6.95925L12.3878 6.07833C13.4946 5.10389 13.602 3.41668 12.6275 2.30984C11.6531 1.203 9.96589 1.09566 8.85905 2.0701L6.63136 4.03131C5.52452 5.00575 5.41719 6.69296 6.39163 7.79981C6.74701 8.20348 6.96111 8.39149 7.28969 8.47144C7.59592 8.54594 7.84754 8.79521 7.81692 9.10888C7.81296 9.14945 7.80437 9.18943 7.79131 9.22804L7.78698 9.24084C7.69018 9.52715 7.40762 9.71674 7.11112 9.65817C6.45505 9.52855 6.00755 9.25523 5.45341 8.62579C4.02279 7.00079 4.18037 4.52372 5.80537 3.0931L8.03307 1.13188C9.65807 -0.298735 12.1351 -0.14115 13.5658 1.48385C14.9964 3.10886 14.8388 5.58593 13.2138 7.01655L12.0375 7.97276Z" fill="#687684"/>
<path d="M2.74522 7.02742C3.02134 6.80293 3.42704 6.8442 3.65229 7.11969C3.88308 7.40194 3.83453 7.81917 3.5451 8.04088L2.39504 8.92187C1.28826 9.89638 1.18103 11.5836 2.15554 12.6904C3.13005 13.7972 4.81727 13.9044 5.92405 12.9299L8.15161 10.9685C9.25839 9.99402 9.36562 8.3068 8.39111 7.20002C8.0357 6.79636 7.82159 6.60837 7.493 6.52844C7.18677 6.45396 6.93513 6.2047 6.96574 5.89103C6.96969 5.85047 6.97828 5.81049 6.99133 5.77187L6.99566 5.75907C7.09244 5.47276 7.375 5.28314 7.6715 5.3417C8.32758 5.47128 8.77509 5.74457 9.32927 6.37397C10.76 7.99889 10.6026 10.476 8.97766 11.9067L6.75009 13.868C5.12518 15.2988 2.6481 15.1413 1.21738 13.5164C-0.213345 11.8915 -0.0559211 9.41443 1.56899 7.98371L2.74522 7.02742Z" fill="#687684"/>
</svg>
