<svg width="24" height="24" viewBox="0 0 24 24" fill="none" xmlns="http://www.w3.org/2000/svg">
<path d="M11.5311 1.26725C11.6922 0.831946 12.3078 0.831944 12.4689 1.26725L15.1613 8.54329C15.2119 8.68015 15.3198 8.78806 15.4567 8.8387L22.7327 11.5311C23.1681 11.6922 23.1681 12.3078 22.7327 12.4689L15.4567 15.1613C15.3199 15.2119 15.2119 15.3198 15.1613 15.4567L12.4689 22.7327C12.3078 23.1681 11.6922 23.1681 11.5311 22.7327L8.8387 15.4567C8.78806 15.3199 8.68015 15.2119 8.54329 15.1613L1.26725 12.4689C0.831946 12.3078 0.831944 11.6922 1.26725 11.5311L8.54329 8.8387C8.68015 8.78806 8.78806 8.68015 8.8387 8.54329L11.5311 1.26725Z" fill="#724DBD"/>
</svg>